<svg xmlns="http://www.w3.org/2000/svg" xmlns:xlink="http://www.w3.org/1999/xlink" width="25" height="23" viewBox="0 0 25 23"><defs><path id="mlwpa" d="M1390.06 61.76a.6.6 0 0 1 .53.36l1.16 2.9 3.48 8.7c.06.14.06.3 0 .44l-1.11 2.68h13.63a.58.58 0 1 1 0 1.16h-14.5c-.38 0-.68-.46-.53-.8l1.35-3.27-3.38-8.48-1.02-2.53h-3.09a.58.58 0 0 1 0-1.16zm20.88 3.48l-1.74 7.54-13.05.87-3.48-8.41zm-12.76 15.95a2.03 2.03 0 1 1-4.06 0 2.03 2.03 0 0 1 4.06 0zm8.7 0a2.03 2.03 0 1 1-4.06 0 2.03 2.03 0 0 1 4.06 0z"/></defs><g><g transform="translate(-1386 -61)"><use xlink:href="#mlwpa"/></g></g></svg>