<svg xmlns="http://www.w3.org/2000/svg" xmlns:xlink="http://www.w3.org/1999/xlink" width="15" height="15" viewBox="0 0 15 15"><defs><path id="mafja" d="M153.68 450.1a.5.5 0 0 0-.3.02c-1.08.42-1.76 1.96-1.92 3.02-.5 3.44 2.22 6.42 4.72 8.38 2.22 1.74 6.48 4.6 9 1.84.32-.34.7-.84.68-1.34-.06-.84-.84-1.44-1.44-1.9-.46-.34-1.42-1.28-2.02-1.26-.54.02-.88.58-1.22.92l-.6.6c-.1.1-1.38-.74-1.52-.84a9.43 9.43 0 0 1-3.48-3.96s.7-.76.9-1.06c.42-.64.74-1.14.26-1.9-.18-.28-.4-.5-.64-.74-.42-.4-.84-.82-1.32-1.16-.26-.2-.7-.56-1.1-.62z"/></defs><g><g transform="translate(-151 -450)"><use xlink:href="#mafja"/></g></g></svg>