<svg xmlns="http://www.w3.org/2000/svg" xmlns:xlink="http://www.w3.org/1999/xlink" width="95" height="53" viewBox="0 0 95 53"><defs><path id="vz9ka" d="M1218.85 757.35l-.43-2.5 20.28-3.53.43 2.5z"/><path id="vz9kb" d="M1214.82 760.67l21.65-3.77.43 2.5-21.65 3.78z"/><path id="vz9kc" d="M1244.5 760.7l.43 2.5-17.98 3.13-.43-2.5z"/><path id="vz9kd" d="M1209.33 774.58l-.44-2.5 41.27-7.17.44 2.5z"/><path id="vz9ke" d="M1245.18 784.45h55.8v2h-77.8v-2h21.96a5.72 5.72 0 0 1-5.27-3.57l-4.86.84-1.13-6.52-12.73 2.21-.43-2.5 17.37-3.02.43 2.5-2.15.37.7 4.03 2.4-.42a5.71 5.71 0 0 1 10.93-1.9l35.74-6.22a5.71 5.71 0 0 1 10.93-1.9l2.48-.43-3.08-17.74-15.37-12.64-49.7 8.64.16.92-2.5.43-.6-3.4 53.35-9.29 17 13.99 3.67 21.15-4.94.86a5.72 5.72 0 0 1-11 1.92l-35.67 6.2a5.71 5.71 0 0 1-5.7 5.5zm43.12-13.22a3.59 3.59 0 1 0 7.07-1.23 3.59 3.59 0 0 0-7.07 1.23zm-42.52 11.04a3.58 3.58 0 1 0-1.23-7.06 3.58 3.58 0 0 0 1.23 7.06z"/><path id="vz9kf" d="M1279.68 753.43l10.54-1.83-.42-2.42-10.54 1.83-1.83-10.53-2.42.42 1.83 10.53.42 2.42z"/></defs><g><g transform="translate(-1208 -734)"><use fill="#fff" fill-opacity=".5" xlink:href="#vz9ka"/></g><g transform="translate(-1208 -734)"><use fill="#fff" fill-opacity=".5" xlink:href="#vz9kb"/></g><g transform="translate(-1208 -734)"><use fill="#fff" fill-opacity=".5" xlink:href="#vz9kc"/></g><g transform="translate(-1208 -734)"><use fill="#fff" fill-opacity=".5" xlink:href="#vz9kd"/></g><g transform="translate(-1208 -734)"><use fill="#fff" fill-opacity=".5" xlink:href="#vz9ke"/></g><g transform="translate(-1208 -734)"><use fill="#fff" fill-opacity=".5" xlink:href="#vz9kf"/></g></g></svg>